<svg width="180" height="180" viewBox="0 0 180 180" fill="none" xmlns="http://www.w3.org/2000/svg">
  <rect width="180" height="180" rx="40" fill="#F5F4FF"/>
  <path d="M90 20L137 37V80C137 114 117 141 90 157C63 141 43 114 43 80V37L90 20Z" fill="#4338CA"/>
  <path d="M90 20L137 37V80C137 114 117 141 90 157C63 141 43 114 43 80V37L90 20Z" stroke="#A5B4FC" stroke-width="5"/>
  <path d="M64 62C64 56.477 68.477 52 74 52H111C113.761 52 116 54.239 116 57C116 59.761 113.761 62 111 62H81C78.239 62 76 64.239 76 67V90C76 92.761 73.761 95 71 95C68.239 95 66 92.761 66 90V62H64Z" fill="white"/>
  <path d="M82 73C82 70.239 84.239 68 87 68H111C113.761 68 116 70.239 116 73C116 75.761 113.761 78 111 78H92V110C92 112.761 89.761 115 87 115C84.239 115 82 112.761 82 110V73Z" fill="white"/>
  <path d="M74 96C74 86.611 81.611 79 91 79H99C101.761 79 104 81.239 104 84C104 86.761 101.761 89 99 89H91C87.134 89 84 92.134 84 96V107C84 110.866 87.134 114 91 114H94C96.761 114 99 116.239 99 119C99 121.761 96.761 124 94 124H91C81.611 124 74 116.389 74 107V96Z" fill="white"/>
  <path d="M124 47L128 59L140 63L128 67L124 79L120 67L108 63L120 59L124 47Z" fill="white"/>
</svg>
